<?xml version="1.0" ?><svg viewBox="0 0 512 512" xmlns="http://www.w3.org/2000/svg"><g id="Product_notification"><path d="M462.7169,108.9661A96.6815,96.6815,0,0,0,270.643,93.2312a62.5937,62.5937,0,0,0-98.4095,51.3777v18.7334h-59.228a30.3971,30.3971,0,0,0-30.3194,27.3721L55.6768,454.3462a30.478,30.478,0,0,0,30.32,33.5845h297.748a30.4778,30.4778,0,0,0,30.3193-33.5845L388.3191,203.05A96.8486,96.8486,0,0,0,462.7169,108.9661ZM184.2335,144.6089a50.58,50.58,0,0,1,85.1393-36.99c-.0063.449-.0171.8969-.0171,1.3473a96.1162,96.1162,0,0,0,16.1522,53.438v.9382H184.2335Zm107.2744,68.4516a9.5005,9.5005,0,1,1-9.501,9.5005A9.5111,9.5111,0,0,1,291.5079,213.0605Zm-113.2744,0a9.5005,9.5005,0,1,1-9.501,9.5005A9.5111,9.5111,0,0,1,178.2335,213.0605Zm223.893,242.5083a18.4777,18.4777,0,0,1-18.3818,20.3619h-6.729l-37.3491-34.9834a45.8558,45.8558,0,0,0-31.4551-12.4312H157.4527a45.8537,45.8537,0,0,0-31.4546,12.4312L88.6489,475.9307H85.9967a18.4785,18.4785,0,0,1-18.3824-20.3619L94.6236,191.937a18.4289,18.4289,0,0,1,18.3819-16.5947h59.228v26.5868a21.5007,21.5007,0,1,0,12,0V175.3423H285.5079v26.5868a21.5007,21.5007,0,1,0,12,0V177.0959a96.5392,96.5392,0,0,0,78.9567,27.9869Zm-36.09-261.9221a84.6806,84.6806,0,1,1,84.6806-84.6806A84.6806,84.6806,0,0,1,366.0363,193.6467Z"/><path d="M405.6035,117.9059l-1.8818-20.9a37.62,37.62,0,0,0-26.1426-32.6672V62.4575a11.5428,11.5428,0,1,0-23.0855,0v1.8816a37.6185,37.6185,0,0,0-26.1425,32.6668l-1.8819,20.8977a15.2139,15.2139,0,0,0-11.2573,15.0623,15.4832,15.4832,0,0,0,15.5254,14.9314H401.332a15.4712,15.4712,0,0,0,15.53-15A15.2129,15.2129,0,0,0,405.6035,117.9059Z"/><path d="M366.0361,171.116a18.05,18.05,0,0,0,17.8662-15.5475H348.17A18.05,18.05,0,0,0,366.0361,171.116Z"/><path d="M331.0479,64.6929l-2.1362-5.607L326.82,53.4624c-1.0147.377-24.8491,9.6025-25.1411,41.2588l11.999.11C313.8922,71.6621,330.3477,64.9663,331.0479,64.6929Z"/><path d="M405.252,53.4619,401.0694,64.71c.1714.0634,17.1084,6.6318,17.3247,30.1215l11.999-.11C430.1016,63.0649,406.2662,53.8394,405.252,53.4619Z"/></g></svg>